<mxfile host="app.diagrams.net" modified="2024-03-03T10:33:18.210Z" agent="Mozilla/5.0 (Windows NT 10.0; Win64; x64) AppleWebKit/537.36 (KHTML, like Gecko) Chrome/121.0.0.0 Safari/537.36" etag="fAiE0W3RBx7jIU4cs0cz" version="24.0.1" type="github">
  <diagram id="kgpKYQtTHZ0yAKxKKP6v" name="Page-1">
    <mxGraphModel dx="880" dy="468" grid="1" gridSize="10" guides="1" tooltips="1" connect="1" arrows="1" fold="1" page="1" pageScale="1" pageWidth="850" pageHeight="1100" math="0" shadow="0">
      <root>
        <mxCell id="0" />
        <mxCell id="1" parent="0" />
        <mxCell id="3nuBFxr9cyL0pnOWT2aG-1" value=":E-learning platform" style="shape=umlLifeline;perimeter=lifelinePerimeter;container=1;collapsible=0;recursiveResize=0;rounded=0;shadow=0;strokeWidth=1;" parent="1" vertex="1">
          <mxGeometry x="212" y="73" width="110" height="607" as="geometry" />
        </mxCell>
        <mxCell id="gHNFWIgtqOMPtn6vXeqG-7" value="" style="html=1;points=[];perimeter=orthogonalPerimeter;" parent="3nuBFxr9cyL0pnOWT2aG-1" vertex="1">
          <mxGeometry x="48" y="77" width="10" height="53" as="geometry" />
        </mxCell>
        <mxCell id="gHNFWIgtqOMPtn6vXeqG-16" value="" style="html=1;points=[];perimeter=orthogonalPerimeter;" parent="3nuBFxr9cyL0pnOWT2aG-1" vertex="1">
          <mxGeometry x="48" y="177" width="10" height="43" as="geometry" />
        </mxCell>
        <mxCell id="gHNFWIgtqOMPtn6vXeqG-24" value="" style="html=1;points=[];perimeter=orthogonalPerimeter;" parent="3nuBFxr9cyL0pnOWT2aG-1" vertex="1">
          <mxGeometry x="48" y="307" width="10" height="213" as="geometry" />
        </mxCell>
        <mxCell id="gHNFWIgtqOMPtn6vXeqG-25" value="verify payment" style="edgeStyle=orthogonalEdgeStyle;html=1;align=left;spacingLeft=2;endArrow=block;rounded=0;entryX=1;entryY=0;entryDx=0;entryDy=0;" parent="3nuBFxr9cyL0pnOWT2aG-1" target="gHNFWIgtqOMPtn6vXeqG-29" edge="1">
          <mxGeometry relative="1" as="geometry">
            <mxPoint x="51" y="317" as="sourcePoint" />
            <Array as="points">
              <mxPoint x="8" y="317" />
              <mxPoint x="8" y="377" />
            </Array>
          </mxGeometry>
        </mxCell>
        <mxCell id="3nuBFxr9cyL0pnOWT2aG-5" value=":Payment Getway" style="shape=umlLifeline;perimeter=lifelinePerimeter;container=1;collapsible=0;recursiveResize=0;rounded=0;shadow=0;strokeWidth=1;" parent="1" vertex="1">
          <mxGeometry x="392" y="73" width="100" height="607" as="geometry" />
        </mxCell>
        <mxCell id="gHNFWIgtqOMPtn6vXeqG-19" value="" style="html=1;points=[];perimeter=orthogonalPerimeter;" parent="3nuBFxr9cyL0pnOWT2aG-5" vertex="1">
          <mxGeometry x="48" y="260" width="10" height="57" as="geometry" />
        </mxCell>
        <mxCell id="gHNFWIgtqOMPtn6vXeqG-22" value="process payment" style="html=1;verticalAlign=bottom;endArrow=block;entryX=1;entryY=0.795;entryDx=0;entryDy=0;entryPerimeter=0;" parent="3nuBFxr9cyL0pnOWT2aG-5" target="gHNFWIgtqOMPtn6vXeqG-19" edge="1">
          <mxGeometry width="80" relative="1" as="geometry">
            <mxPoint x="58" y="267" as="sourcePoint" />
            <mxPoint x="68" y="197" as="targetPoint" />
            <Array as="points">
              <mxPoint x="98" y="267" />
              <mxPoint x="98" y="289" />
              <mxPoint x="98" y="305" />
            </Array>
          </mxGeometry>
        </mxCell>
        <mxCell id="gHNFWIgtqOMPtn6vXeqG-3" value="" style="endArrow=none;dashed=1;html=1;" parent="1" edge="1">
          <mxGeometry width="50" height="50" relative="1" as="geometry">
            <mxPoint x="89.5" y="110" as="sourcePoint" />
            <mxPoint x="95" y="110" as="targetPoint" />
          </mxGeometry>
        </mxCell>
        <mxCell id="gHNFWIgtqOMPtn6vXeqG-6" value="" style="endArrow=none;dashed=1;html=1;" parent="1" source="gHNFWIgtqOMPtn6vXeqG-11" edge="1">
          <mxGeometry width="50" height="50" relative="1" as="geometry">
            <mxPoint x="95" y="594" as="sourcePoint" />
            <mxPoint x="92.94117647058829" y="110" as="targetPoint" />
          </mxGeometry>
        </mxCell>
        <mxCell id="gHNFWIgtqOMPtn6vXeqG-11" value="Student" style="shape=umlLifeline;participant=umlActor;perimeter=lifelinePerimeter;whiteSpace=wrap;html=1;container=1;collapsible=0;recursiveResize=0;verticalAlign=top;spacingTop=36;outlineConnect=0;" parent="1" vertex="1">
          <mxGeometry x="80" y="76" width="20" height="604" as="geometry" />
        </mxCell>
        <mxCell id="gHNFWIgtqOMPtn6vXeqG-8" value="open course" style="html=1;verticalAlign=bottom;endArrow=block;entryX=0;entryY=0;" parent="1" source="gHNFWIgtqOMPtn6vXeqG-11" target="gHNFWIgtqOMPtn6vXeqG-7" edge="1">
          <mxGeometry relative="1" as="geometry">
            <mxPoint x="90" y="150" as="sourcePoint" />
          </mxGeometry>
        </mxCell>
        <mxCell id="gHNFWIgtqOMPtn6vXeqG-9" value="show course page" style="html=1;verticalAlign=bottom;endArrow=open;dashed=1;endSize=8;exitX=0;exitY=0.95;" parent="1" source="gHNFWIgtqOMPtn6vXeqG-7" target="gHNFWIgtqOMPtn6vXeqG-11" edge="1">
          <mxGeometry relative="1" as="geometry">
            <mxPoint x="90" y="210" as="targetPoint" />
          </mxGeometry>
        </mxCell>
        <mxCell id="gHNFWIgtqOMPtn6vXeqG-17" value="click enroll button" style="html=1;verticalAlign=bottom;endArrow=block;entryX=0;entryY=0;" parent="1" source="gHNFWIgtqOMPtn6vXeqG-11" target="gHNFWIgtqOMPtn6vXeqG-16" edge="1">
          <mxGeometry relative="1" as="geometry">
            <mxPoint x="190" y="250" as="sourcePoint" />
          </mxGeometry>
        </mxCell>
        <mxCell id="gHNFWIgtqOMPtn6vXeqG-18" value="show payment page" style="html=1;verticalAlign=bottom;endArrow=open;dashed=1;endSize=8;exitX=0;exitY=0.95;" parent="1" source="gHNFWIgtqOMPtn6vXeqG-16" target="gHNFWIgtqOMPtn6vXeqG-11" edge="1">
          <mxGeometry relative="1" as="geometry">
            <mxPoint x="190" y="326" as="targetPoint" />
          </mxGeometry>
        </mxCell>
        <mxCell id="gHNFWIgtqOMPtn6vXeqG-21" value="payment status" style="html=1;verticalAlign=bottom;endArrow=open;dashed=1;endSize=8;exitX=0;exitY=0.95;entryX=0.539;entryY=0.519;entryDx=0;entryDy=0;entryPerimeter=0;" parent="1" source="gHNFWIgtqOMPtn6vXeqG-19" target="3nuBFxr9cyL0pnOWT2aG-1" edge="1">
          <mxGeometry relative="1" as="geometry">
            <mxPoint x="269" y="385" as="targetPoint" />
          </mxGeometry>
        </mxCell>
        <mxCell id="gHNFWIgtqOMPtn6vXeqG-20" value="submit payment details" style="html=1;verticalAlign=bottom;endArrow=block;entryX=0;entryY=0;" parent="1" source="gHNFWIgtqOMPtn6vXeqG-11" target="gHNFWIgtqOMPtn6vXeqG-19" edge="1">
          <mxGeometry relative="1" as="geometry">
            <mxPoint x="370" y="310" as="sourcePoint" />
          </mxGeometry>
        </mxCell>
        <mxCell id="gHNFWIgtqOMPtn6vXeqG-27" value="Alt" style="shape=umlFrame;whiteSpace=wrap;html=1;" parent="1" vertex="1">
          <mxGeometry x="80" y="438" width="390" height="200" as="geometry" />
        </mxCell>
        <mxCell id="gHNFWIgtqOMPtn6vXeqG-28" value="" style="endArrow=none;dashed=1;html=1;exitX=0.007;exitY=0.537;exitDx=0;exitDy=0;exitPerimeter=0;entryX=1.002;entryY=0.537;entryDx=0;entryDy=0;entryPerimeter=0;" parent="1" source="gHNFWIgtqOMPtn6vXeqG-27" target="gHNFWIgtqOMPtn6vXeqG-27" edge="1">
          <mxGeometry width="50" height="50" relative="1" as="geometry">
            <mxPoint x="370" y="520" as="sourcePoint" />
            <mxPoint x="420" y="470" as="targetPoint" />
          </mxGeometry>
        </mxCell>
        <mxCell id="gHNFWIgtqOMPtn6vXeqG-29" value="[payment successful]" style="text;html=1;strokeColor=none;fillColor=none;align=center;verticalAlign=middle;whiteSpace=wrap;rounded=0;" parent="1" vertex="1">
          <mxGeometry x="140" y="450" width="120" height="20" as="geometry" />
        </mxCell>
        <mxCell id="gHNFWIgtqOMPtn6vXeqG-30" value="[else]" style="text;html=1;strokeColor=none;fillColor=none;align=center;verticalAlign=middle;whiteSpace=wrap;rounded=0;" parent="1" vertex="1">
          <mxGeometry x="92" y="550" width="38" height="20" as="geometry" />
        </mxCell>
        <mxCell id="gHNFWIgtqOMPtn6vXeqG-32" value="registration recorded" style="edgeStyle=orthogonalEdgeStyle;html=1;align=left;spacingLeft=2;endArrow=block;rounded=0;entryX=0.4;entryY=0.847;entryDx=0;entryDy=0;entryPerimeter=0;" parent="1" edge="1">
          <mxGeometry relative="1" as="geometry">
            <mxPoint x="264" y="498" as="sourcePoint" />
            <Array as="points">
              <mxPoint x="320" y="498" />
              <mxPoint x="320" y="532" />
            </Array>
            <mxPoint x="264" y="532.3499999999999" as="targetPoint" />
          </mxGeometry>
        </mxCell>
        <mxCell id="gHNFWIgtqOMPtn6vXeqG-34" value="successful message" style="html=1;verticalAlign=bottom;endArrow=open;dashed=1;endSize=8;exitX=-0.2;exitY=0.847;exitDx=0;exitDy=0;exitPerimeter=0;" parent="1" edge="1">
          <mxGeometry relative="1" as="geometry">
            <mxPoint x="258" y="532.3499999999999" as="sourcePoint" />
            <mxPoint x="90" y="532" as="targetPoint" />
          </mxGeometry>
        </mxCell>
        <mxCell id="gHNFWIgtqOMPtn6vXeqG-35" value="redirect to payment page" style="html=1;verticalAlign=bottom;endArrow=open;dashed=1;endSize=8;entryX=0.026;entryY=0.76;entryDx=0;entryDy=0;entryPerimeter=0;" parent="1" target="gHNFWIgtqOMPtn6vXeqG-27" edge="1">
          <mxGeometry relative="1" as="geometry">
            <mxPoint x="260" y="590" as="sourcePoint" />
            <mxPoint x="180" y="590" as="targetPoint" />
          </mxGeometry>
        </mxCell>
        <mxCell id="gHNFWIgtqOMPtn6vXeqG-36" value="Enroll in course - Sequence diagram1" style="shape=note2;boundedLbl=1;whiteSpace=wrap;html=1;size=25;verticalAlign=top;align=center;" parent="1" vertex="1">
          <mxGeometry x="160" width="260" height="60" as="geometry" />
        </mxCell>
      </root>
    </mxGraphModel>
  </diagram>
</mxfile>
